<svg 
 xmlns="http://www.w3.org/2000/svg"
 xmlns:xlink="http://www.w3.org/1999/xlink"
 width="30px" height="25px">
<path fill-rule="evenodd"  fill="rgb(72, 72, 72)"
 d="M27.321,8.589 L25.147,17.041 C24.549,16.720 23.934,16.426 23.302,16.161 L25.375,8.104 C24.206,7.316 23.782,5.925 24.103,4.683 C24.531,3.019 26.183,2.026 27.776,2.474 C29.374,2.919 30.326,4.636 29.898,6.301 C29.569,7.581 28.516,8.453 27.321,8.589 ZM24.615,19.109 C25.301,19.499 25.967,19.931 26.610,20.405 C27.485,21.060 28.312,21.794 29.080,22.606 C29.146,22.676 29.220,22.732 29.297,22.778 C29.444,22.932 29.589,23.088 29.731,23.247 C30.109,23.668 30.086,24.327 29.683,24.720 C29.278,25.113 28.646,25.088 28.269,24.669 C27.021,23.276 25.610,22.111 24.080,21.187 L23.389,23.872 C23.247,24.425 22.701,24.759 22.164,24.609 C21.631,24.460 21.315,23.889 21.457,23.333 L22.258,20.221 C20.301,19.333 18.191,18.813 16.000,18.691 L16.000,21.875 C16.000,22.450 15.552,22.916 15.000,22.916 C14.448,22.916 14.007,22.450 14.007,21.875 L14.007,18.691 C11.817,18.813 9.702,19.332 7.747,20.219 L8.549,23.333 C8.691,23.889 8.375,24.460 7.842,24.609 C7.305,24.759 6.758,24.425 6.616,23.872 L5.925,21.184 C4.393,22.109 2.981,23.274 1.731,24.669 C1.353,25.089 0.721,25.111 0.317,24.719 C-0.086,24.327 -0.108,23.668 0.269,23.247 C0.419,23.079 0.572,22.915 0.727,22.753 C0.789,22.712 0.849,22.663 0.903,22.606 C1.389,22.093 1.899,21.611 2.429,21.160 C3.363,20.380 4.353,19.694 5.390,19.106 L5.385,19.088 C5.981,18.749 6.593,18.443 7.221,18.171 L7.225,18.190 C9.351,17.265 11.639,16.724 14.007,16.605 L14.007,16.603 C14.334,16.587 14.662,16.579 14.992,16.579 C15.330,16.579 15.666,16.587 16.000,16.604 L16.000,16.605 C18.370,16.724 20.653,17.266 22.780,18.192 L22.783,18.180 C23.411,18.452 24.023,18.759 24.618,19.098 L24.615,19.109 ZM16.000,6.058 L16.000,14.519 C15.665,14.504 15.329,14.496 14.992,14.496 C14.662,14.496 14.334,14.504 14.007,14.518 L14.007,6.058 C12.845,5.626 12.000,4.481 12.000,3.125 C12.000,1.402 13.346,-0.000 15.000,-0.000 C16.654,-0.000 18.000,1.402 18.000,3.125 C18.000,4.481 17.162,5.626 16.000,6.058 ZM6.695,16.155 C6.065,16.418 5.452,16.711 4.856,17.031 L2.685,8.590 C1.488,8.456 0.433,7.583 0.103,6.301 C-0.326,4.635 0.621,2.921 2.225,2.474 C3.818,2.028 5.471,3.018 5.899,4.683 C6.243,6.021 5.687,7.380 4.630,8.099 L6.701,16.152 C6.699,16.153 6.697,16.154 6.695,16.155 Z"/>
</svg>