<svg 
 xmlns="http://www.w3.org/2000/svg"
 xmlns:xlink="http://www.w3.org/1999/xlink"
 width="24px" height="25px">
<path fill-rule="evenodd"  fill="rgb(72, 72, 72)"
 d="M22.548,4.419 C21.857,2.428 20.447,0.963 18.679,0.400 C15.320,-0.669 12.559,0.705 11.503,1.364 C10.448,0.705 7.686,-0.669 4.328,0.400 C2.559,0.964 1.148,2.429 0.457,4.421 C-0.450,7.040 0.007,10.061 1.680,12.502 C2.798,14.132 3.528,15.972 3.791,17.823 C3.806,17.929 3.821,18.038 3.836,18.150 C4.089,20.101 4.462,21.668 4.945,22.805 C5.523,24.169 6.269,24.905 7.163,24.994 C8.110,25.087 8.896,24.306 9.500,22.669 C9.923,21.525 10.256,19.992 10.438,18.353 C10.540,17.436 10.778,16.694 11.127,16.207 C11.251,16.033 11.432,16.014 11.503,16.014 C11.575,16.014 11.755,16.033 11.880,16.207 C12.229,16.694 12.467,17.436 12.569,18.353 C12.751,19.992 13.084,21.525 13.506,22.669 C14.078,24.218 14.813,25.001 15.692,25.001 C15.742,25.001 15.793,24.999 15.844,24.994 C16.737,24.905 17.483,24.169 18.062,22.805 C18.544,21.668 18.918,20.102 19.171,18.150 C19.185,18.043 19.199,17.937 19.214,17.834 C19.476,15.981 20.208,14.135 21.330,12.497 C23.001,10.056 23.456,7.036 22.548,4.419 Z"/>
</svg>