<svg 
 xmlns="http://www.w3.org/2000/svg"
 xmlns:xlink="http://www.w3.org/1999/xlink"
 width="22px" height="25px">
<path fill-rule="evenodd"  fill="rgb(72, 72, 72)"
 d="M5.295,18.491 C5.295,18.085 5.629,17.757 6.042,17.757 C6.454,17.757 6.788,18.085 6.788,18.491 C6.788,18.896 6.454,19.224 6.042,19.224 C5.629,19.224 5.295,18.896 5.295,18.491 ZM11.008,25.000 L10.992,25.000 L-0.000,25.000 C-0.000,25.000 -0.000,20.648 -0.000,19.865 C-0.000,19.081 0.917,17.932 4.099,16.805 C5.130,16.439 5.947,16.171 6.547,15.846 C6.869,15.671 7.178,15.815 7.267,15.926 C7.955,16.787 10.301,17.936 10.302,17.937 C10.440,18.006 10.565,18.128 10.574,18.294 C10.574,18.295 10.575,18.297 10.575,18.297 L10.575,18.313 C10.575,18.314 10.575,18.314 10.575,18.314 L10.575,18.315 L10.569,20.908 C10.569,22.070 9.668,23.016 8.561,23.016 C7.452,23.016 6.552,22.070 6.552,20.908 L6.552,19.832 C7.104,19.627 7.497,19.104 7.497,18.491 C7.497,17.698 6.843,17.056 6.036,17.056 C5.230,17.056 4.576,17.698 4.576,18.491 C4.576,19.118 4.987,19.650 5.558,19.845 L5.558,20.958 C5.558,22.597 6.906,23.931 8.562,23.931 C10.215,23.931 11.562,22.597 11.562,20.958 L11.554,18.298 L11.554,18.297 C11.554,18.297 11.554,18.297 11.554,18.297 C11.554,18.113 11.681,17.958 11.854,17.912 C11.855,17.912 14.058,16.980 14.727,16.211 C14.753,16.181 14.778,16.150 14.802,16.120 C14.891,16.009 15.200,15.865 15.522,16.039 C15.609,16.086 15.645,16.095 15.745,16.161 C16.316,16.509 17.021,16.829 17.901,17.141 C21.083,18.268 22.000,19.081 22.000,19.865 C22.000,20.648 22.000,25.000 22.000,25.000 L11.008,25.000 ZM16.504,7.540 C16.340,9.653 15.485,8.742 15.308,9.668 C14.961,11.489 14.253,11.559 14.004,12.186 C13.948,12.327 13.915,13.001 13.915,13.225 C13.915,13.975 13.957,14.372 14.255,14.753 C14.323,14.839 14.438,15.121 14.292,15.335 C13.631,16.303 12.356,17.117 11.157,17.132 C9.959,17.117 8.684,16.303 8.023,15.335 C7.877,15.121 7.991,14.839 8.059,14.753 C8.358,14.372 8.400,13.975 8.400,13.225 C8.400,13.001 8.367,12.327 8.311,12.186 C8.062,11.559 7.353,11.489 7.006,9.668 C6.830,8.742 5.974,9.653 5.811,7.540 C5.811,6.698 6.278,6.488 6.278,6.488 C6.278,6.488 6.040,5.242 5.947,4.283 C5.832,3.087 6.657,-0.000 11.060,-0.000 C11.076,-0.000 11.129,-0.000 11.157,-0.000 C11.186,-0.000 11.239,-0.000 11.255,-0.000 C15.657,-0.000 16.483,3.087 16.367,4.283 C16.274,5.242 16.037,6.488 16.037,6.488 C16.037,6.488 16.504,6.698 16.504,7.540 Z"/>
</svg>