<svg 
 xmlns="http://www.w3.org/2000/svg"
 xmlns:xlink="http://www.w3.org/1999/xlink"
 width="27px" height="25px">
<path fill-rule="evenodd"  fill="rgb(72, 72, 72)"
 d="M25.242,19.643 L8.806,19.643 C7.835,19.643 7.045,18.842 7.045,17.858 C7.045,16.873 7.835,16.072 8.806,16.072 L13.210,16.072 C11.268,16.072 9.688,14.471 9.688,12.501 L9.688,10.716 C9.688,8.747 11.268,7.145 13.210,7.145 L18.988,7.145 C19.643,7.145 20.262,7.334 20.797,7.660 L16.497,9.114 C15.080,9.593 14.089,10.986 14.089,12.501 L14.089,16.072 L15.850,16.072 L15.850,12.501 C15.850,11.862 16.264,11.075 17.054,10.808 L22.337,9.022 C23.283,8.701 24.263,9.233 24.565,10.150 C24.858,11.040 24.438,12.077 23.402,12.426 C23.779,13.572 23.177,14.500 22.322,14.789 C21.465,15.082 20.433,14.691 20.061,13.556 L19.372,13.789 L19.372,16.072 L25.242,16.072 C26.213,16.072 27.003,16.873 27.003,17.858 C27.003,18.842 26.213,19.643 25.242,19.643 ZM15.850,5.360 C14.393,5.360 13.208,4.158 13.208,2.681 C13.208,1.205 14.393,0.003 15.850,0.003 C17.307,0.003 18.492,1.205 18.492,2.681 C18.492,4.158 17.307,5.360 15.850,5.360 ZM2.643,19.643 C1.186,19.643 0.001,18.442 0.001,16.965 C0.001,15.488 1.186,14.287 2.643,14.287 C4.099,14.287 5.284,15.488 5.284,16.965 C5.284,18.442 4.099,19.643 2.643,19.643 ZM1.762,21.429 L25.242,21.429 C26.213,21.429 27.003,22.230 27.003,23.214 C27.003,24.199 26.213,25.000 25.242,25.000 L1.762,25.000 C0.791,25.000 0.001,24.199 0.001,23.214 C0.001,22.230 0.791,21.429 1.762,21.429 Z"/>
</svg>