<svg 
 xmlns="http://www.w3.org/2000/svg"
 xmlns:xlink="http://www.w3.org/1999/xlink"
 width="15px" height="15px">
<path fill-rule="evenodd"  fill="rgb(255,255,255)"
 d="M7.500,15.000 C2.576,15.000 -0.000,13.931 -0.000,12.875 C-0.000,11.935 1.838,11.062 4.471,10.752 C4.608,10.734 4.732,10.833 4.748,10.971 C4.764,11.108 4.666,11.232 4.529,11.248 C1.900,11.558 0.500,12.392 0.500,12.875 C0.500,13.553 3.163,14.500 7.500,14.500 C11.837,14.500 14.500,13.553 14.500,12.875 C14.500,12.392 13.100,11.558 10.471,11.248 C10.334,11.232 10.236,11.108 10.252,10.971 C10.268,10.833 10.392,10.735 10.529,10.752 C13.161,11.062 15.000,11.935 15.000,12.875 C15.000,13.931 12.424,15.000 7.500,15.000 ZM7.456,13.689 L3.615,8.142 C2.182,6.232 2.390,3.080 4.066,1.404 C4.971,0.499 6.175,-0.000 7.456,-0.000 C8.736,-0.000 9.940,0.499 10.846,1.404 C12.521,3.080 12.729,6.232 11.291,8.150 L7.456,13.689 ZM10.492,1.758 C9.681,0.947 8.603,0.500 7.456,0.500 C6.309,0.500 5.230,0.947 4.419,1.758 C2.907,3.270 2.720,6.117 4.020,7.850 L7.456,12.811 L10.885,7.857 C12.191,6.117 12.005,3.270 10.492,1.758 ZM7.500,6.500 C6.535,6.500 5.750,5.715 5.750,4.750 C5.750,3.785 6.535,3.000 7.500,3.000 C8.465,3.000 9.250,3.785 9.250,4.750 C9.250,5.715 8.465,6.500 7.500,6.500 ZM7.500,3.500 C6.811,3.500 6.250,4.061 6.250,4.750 C6.250,5.439 6.811,6.000 7.500,6.000 C8.189,6.000 8.750,5.439 8.750,4.750 C8.750,4.061 8.189,3.500 7.500,3.500 Z"/>
</svg>