<svg 
 xmlns="http://www.w3.org/2000/svg"
 xmlns:xlink="http://www.w3.org/1999/xlink"
 width="160px" height="45px">
<path fill-rule="evenodd"  fill="rgb(28, 44, 92)"
 d="M5.000,-0.000 L155.000,-0.000 C157.761,-0.000 160.000,2.239 160.000,5.000 L160.000,40.000 C160.000,42.761 157.761,45.000 155.000,45.000 L5.000,45.000 C2.238,45.000 -0.000,42.761 -0.000,40.000 L-0.000,5.000 C-0.000,2.239 2.238,-0.000 5.000,-0.000 Z"/>
<path fill-rule="evenodd"  fill="rgb(255, 255, 255)"
 d="M132.633,27.799 L130.923,27.799 L127.683,23.209 L125.883,24.901 L125.883,27.799 L124.299,27.799 L124.299,14.659 L125.883,14.659 L125.883,23.299 L130.707,18.421 L132.453,18.421 L128.709,22.309 L132.633,27.799 ZM121.059,26.521 C120.639,26.965 120.138,27.319 119.556,27.583 C118.974,27.847 118.329,27.979 117.621,27.979 C116.913,27.979 116.268,27.847 115.686,27.583 C115.104,27.319 114.606,26.965 114.192,26.521 C113.778,26.077 113.457,25.561 113.229,24.973 C113.001,24.385 112.887,23.767 112.887,23.119 C112.887,22.459 113.004,21.835 113.238,21.247 C113.472,20.659 113.796,20.143 114.210,19.699 C114.624,19.255 115.122,18.901 115.704,18.637 C116.286,18.373 116.925,18.241 117.621,18.241 C118.317,18.241 118.959,18.373 119.547,18.637 C120.135,18.901 120.636,19.255 121.050,19.699 C121.464,20.143 121.788,20.659 122.022,21.247 C122.256,21.835 122.373,22.459 122.373,23.119 C122.373,23.767 122.259,24.385 122.031,24.973 C121.803,25.561 121.479,26.077 121.059,26.521 ZM120.510,21.742 C120.348,21.316 120.123,20.944 119.835,20.626 C119.547,20.308 119.214,20.059 118.836,19.879 C118.458,19.699 118.053,19.609 117.621,19.609 C117.189,19.609 116.784,19.702 116.406,19.888 C116.028,20.074 115.698,20.326 115.416,20.644 C115.134,20.962 114.912,21.334 114.750,21.760 C114.588,22.186 114.507,22.645 114.507,23.137 C114.507,23.629 114.588,24.085 114.750,24.505 C114.912,24.925 115.134,25.291 115.416,25.603 C115.698,25.915 116.028,26.161 116.406,26.341 C116.784,26.521 117.189,26.611 117.621,26.611 C118.053,26.611 118.458,26.521 118.836,26.341 C119.214,26.161 119.547,25.912 119.835,25.594 C120.123,25.276 120.348,24.904 120.510,24.478 C120.672,24.052 120.753,23.593 120.753,23.101 C120.753,22.621 120.672,22.168 120.510,21.742 ZM110.277,26.521 C109.857,26.965 109.356,27.319 108.774,27.583 C108.192,27.847 107.547,27.979 106.839,27.979 C106.131,27.979 105.486,27.847 104.904,27.583 C104.322,27.319 103.824,26.965 103.410,26.521 C102.996,26.077 102.675,25.561 102.447,24.973 C102.219,24.385 102.105,23.767 102.105,23.119 C102.105,22.459 102.222,21.835 102.456,21.247 C102.690,20.659 103.014,20.143 103.428,19.699 C103.842,19.255 104.340,18.901 104.922,18.637 C105.504,18.373 106.143,18.241 106.839,18.241 C107.535,18.241 108.177,18.373 108.765,18.637 C109.353,18.901 109.854,19.255 110.268,19.699 C110.682,20.143 111.006,20.659 111.240,21.247 C111.474,21.835 111.591,22.459 111.591,23.119 C111.591,23.767 111.477,24.385 111.249,24.973 C111.021,25.561 110.697,26.077 110.277,26.521 ZM109.728,21.742 C109.566,21.316 109.341,20.944 109.053,20.626 C108.765,20.308 108.432,20.059 108.054,19.879 C107.676,19.699 107.271,19.609 106.839,19.609 C106.407,19.609 106.002,19.702 105.624,19.888 C105.246,20.074 104.916,20.326 104.634,20.644 C104.352,20.962 104.130,21.334 103.968,21.760 C103.806,22.186 103.725,22.645 103.725,23.137 C103.725,23.629 103.806,24.085 103.968,24.505 C104.130,24.925 104.352,25.291 104.634,25.603 C104.916,25.915 105.246,26.161 105.624,26.341 C106.002,26.521 106.407,26.611 106.839,26.611 C107.271,26.611 107.676,26.521 108.054,26.341 C108.432,26.161 108.765,25.912 109.053,25.594 C109.341,25.276 109.566,24.904 109.728,24.478 C109.890,24.052 109.971,23.593 109.971,23.101 C109.971,22.621 109.890,22.168 109.728,21.742 ZM99.514,26.548 C99.118,26.986 98.646,27.334 98.101,27.592 C97.554,27.850 96.969,27.979 96.346,27.979 C95.613,27.979 94.947,27.799 94.348,27.439 C93.747,27.079 93.273,26.611 92.926,26.035 L92.926,27.799 L91.522,27.799 L91.522,14.659 L93.106,14.659 L93.106,20.275 C93.502,19.663 93.988,19.171 94.564,18.799 C95.140,18.427 95.811,18.241 96.580,18.241 C97.228,18.241 97.809,18.379 98.326,18.655 C98.841,18.931 99.282,19.294 99.649,19.744 C100.014,20.194 100.297,20.716 100.495,21.310 C100.693,21.904 100.792,22.513 100.792,23.137 C100.792,23.797 100.677,24.421 100.450,25.009 C100.221,25.597 99.910,26.110 99.514,26.548 ZM98.947,21.814 C98.796,21.388 98.587,21.013 98.317,20.689 C98.047,20.365 97.723,20.104 97.345,19.906 C96.967,19.708 96.549,19.609 96.094,19.609 C95.757,19.609 95.439,19.669 95.140,19.789 C94.839,19.909 94.560,20.068 94.303,20.266 C94.044,20.464 93.817,20.695 93.619,20.959 C93.421,21.223 93.250,21.505 93.106,21.805 L93.106,24.523 C93.165,24.823 93.295,25.099 93.493,25.351 C93.691,25.603 93.925,25.822 94.195,26.008 C94.465,26.194 94.753,26.341 95.059,26.449 C95.365,26.557 95.662,26.611 95.950,26.611 C96.418,26.611 96.850,26.515 97.246,26.323 C97.642,26.131 97.984,25.873 98.272,25.549 C98.560,25.225 98.781,24.856 98.938,24.442 C99.093,24.028 99.172,23.593 99.172,23.137 C99.172,22.681 99.096,22.240 98.947,21.814 ZM89.722,23.641 L81.928,23.641 C81.964,24.109 82.072,24.535 82.252,24.919 C82.432,25.303 82.666,25.633 82.954,25.909 C83.242,26.185 83.569,26.401 83.935,26.557 C84.301,26.713 84.688,26.791 85.096,26.791 C85.384,26.791 85.666,26.752 85.942,26.674 C86.218,26.596 86.476,26.491 86.716,26.359 C86.956,26.227 87.169,26.065 87.355,25.873 C87.541,25.681 87.682,25.465 87.778,25.225 L89.146,25.603 C88.990,25.951 88.777,26.269 88.507,26.557 C88.237,26.845 87.925,27.094 87.571,27.304 C87.217,27.514 86.824,27.679 86.392,27.799 C85.960,27.919 85.510,27.979 85.042,27.979 C84.334,27.979 83.686,27.850 83.098,27.592 C82.510,27.334 82.006,26.983 81.586,26.539 C81.166,26.095 80.839,25.576 80.605,24.982 C80.371,24.388 80.254,23.761 80.254,23.101 C80.254,22.441 80.371,21.817 80.605,21.229 C80.839,20.641 81.169,20.125 81.595,19.681 C82.021,19.237 82.528,18.886 83.116,18.628 C83.704,18.370 84.352,18.241 85.060,18.241 C85.768,18.241 86.413,18.373 86.995,18.637 C87.577,18.901 88.072,19.252 88.480,19.690 C88.888,20.128 89.203,20.638 89.425,21.220 C89.647,21.802 89.758,22.405 89.758,23.029 C89.758,23.161 89.755,23.281 89.749,23.389 C89.743,23.497 89.734,23.581 89.722,23.641 ZM87.931,21.238 C87.745,20.860 87.511,20.539 87.229,20.275 C86.947,20.011 86.620,19.804 86.248,19.654 C85.876,19.504 85.480,19.429 85.060,19.429 C84.640,19.429 84.244,19.504 83.872,19.654 C83.500,19.804 83.173,20.014 82.891,20.284 C82.609,20.554 82.381,20.875 82.207,21.247 C82.033,21.619 81.928,22.027 81.892,22.471 L88.264,22.471 C88.228,22.027 88.117,21.616 87.931,21.238 ZM72.919,25.594 C73.201,25.912 73.531,26.161 73.909,26.341 C74.287,26.521 74.692,26.611 75.124,26.611 C75.400,26.611 75.673,26.572 75.943,26.494 C76.213,26.416 76.459,26.311 76.681,26.179 C76.903,26.047 77.098,25.894 77.266,25.720 C77.434,25.546 77.554,25.357 77.626,25.153 L79.174,25.621 C79.030,25.969 78.829,26.287 78.571,26.575 C78.313,26.863 78.010,27.109 77.662,27.313 C77.314,27.517 76.927,27.679 76.501,27.799 C76.075,27.919 75.628,27.979 75.160,27.979 C74.452,27.979 73.804,27.847 73.216,27.583 C72.628,27.319 72.124,26.965 71.704,26.521 C71.284,26.077 70.957,25.558 70.723,24.964 C70.489,24.370 70.372,23.743 70.372,23.083 C70.372,22.423 70.486,21.799 70.714,21.211 C70.942,20.623 71.266,20.110 71.686,19.672 C72.106,19.234 72.607,18.886 73.189,18.628 C73.771,18.370 74.422,18.241 75.142,18.241 C76.078,18.241 76.885,18.448 77.563,18.862 C78.241,19.276 78.754,19.831 79.102,20.527 L77.554,21.013 C77.314,20.569 76.978,20.224 76.546,19.978 C76.114,19.732 75.634,19.609 75.106,19.609 C74.674,19.609 74.266,19.696 73.882,19.870 C73.498,20.044 73.168,20.287 72.892,20.599 C72.616,20.911 72.397,21.277 72.235,21.697 C72.073,22.117 71.992,22.579 71.992,23.083 C71.992,23.575 72.076,24.037 72.244,24.469 C72.412,24.901 72.637,25.276 72.919,25.594 ZM68.212,27.871 C67.900,27.871 67.651,27.778 67.465,27.592 C67.279,27.406 67.168,27.181 67.132,26.917 L67.096,26.251 C66.676,26.815 66.145,27.244 65.503,27.538 C64.861,27.832 64.174,27.979 63.442,27.979 C62.998,27.979 62.584,27.904 62.200,27.754 C61.816,27.604 61.483,27.397 61.201,27.133 C60.919,26.869 60.697,26.560 60.535,26.206 C60.373,25.852 60.292,25.465 60.292,25.045 C60.292,24.613 60.388,24.220 60.580,23.866 C60.772,23.512 61.045,23.209 61.399,22.957 C61.753,22.705 62.173,22.507 62.659,22.363 C63.145,22.219 63.676,22.147 64.252,22.147 C64.708,22.147 65.170,22.189 65.638,22.273 C66.106,22.357 66.520,22.471 66.880,22.615 L66.880,21.859 C66.880,21.091 66.664,20.488 66.232,20.050 C65.800,19.612 65.188,19.393 64.396,19.393 C63.448,19.393 62.452,19.759 61.408,20.491 L60.886,19.465 C62.098,18.649 63.316,18.241 64.540,18.241 C65.776,18.241 66.739,18.571 67.429,19.231 C68.119,19.891 68.464,20.821 68.464,22.021 L68.464,25.855 C68.464,26.227 68.632,26.419 68.968,26.431 L68.968,27.799 C68.800,27.823 68.662,27.841 68.554,27.853 C68.446,27.865 68.332,27.871 68.212,27.871 ZM66.880,23.551 C66.112,23.251 65.314,23.101 64.486,23.101 C63.694,23.101 63.049,23.269 62.551,23.605 C62.053,23.941 61.804,24.379 61.804,24.919 C61.804,25.183 61.855,25.429 61.957,25.657 C62.059,25.885 62.203,26.083 62.389,26.251 C62.575,26.419 62.794,26.551 63.046,26.647 C63.298,26.743 63.568,26.791 63.856,26.791 C64.420,26.791 64.945,26.686 65.431,26.476 C65.917,26.266 66.286,25.987 66.538,25.639 C66.766,25.411 66.880,25.177 66.880,24.937 L66.880,23.551 ZM53.434,20.725 L59.176,20.725 L59.176,22.075 L53.434,22.075 L53.434,27.799 L51.814,27.799 L51.814,15.019 L60.256,15.019 L60.256,16.459 L53.434,16.459 L53.434,20.725 ZM36.996,19.180 L36.723,22.005 L34.614,22.005 C34.614,25.587 34.614,29.998 34.614,29.998 L31.489,29.998 C31.489,29.998 31.489,25.630 31.489,22.005 L30.003,22.005 L30.003,19.180 L31.489,19.180 L31.489,17.353 C31.489,16.044 32.073,13.999 34.643,13.999 L36.958,14.009 L36.958,16.751 C36.958,16.751 35.551,16.751 35.277,16.751 C35.003,16.751 34.615,16.896 34.615,17.520 L34.615,19.180 L36.996,19.180 Z"/>
</svg>