<svg 
 xmlns="http://www.w3.org/2000/svg"
 xmlns:xlink="http://www.w3.org/1999/xlink"
 width="155px" height="45px">
<path fill-rule="evenodd"  fill="rgb(220, 78, 65)"
 d="M5.000,-0.000 L150.000,-0.000 C152.761,-0.000 155.000,2.239 155.000,5.000 L155.000,40.000 C155.000,42.761 152.761,45.000 150.000,45.000 L5.000,45.000 C2.238,45.000 -0.000,42.761 -0.000,40.000 L-0.000,5.000 C-0.000,2.239 2.238,-0.000 5.000,-0.000 Z"/>
<path fill-rule="evenodd"  fill="rgb(255, 255, 255)"
 d="M125.735,22.057 L125.735,24.361 L124.295,24.361 L124.295,22.057 L122.171,22.057 L122.171,20.761 L124.295,20.761 L124.295,18.457 L125.735,18.457 L125.735,20.761 L127.859,20.761 L127.859,22.057 L125.735,22.057 ZM116.196,23.641 L108.402,23.641 C108.438,24.109 108.546,24.535 108.726,24.919 C108.906,25.303 109.140,25.633 109.428,25.909 C109.716,26.185 110.042,26.401 110.409,26.557 C110.775,26.713 111.162,26.791 111.570,26.791 C111.858,26.791 112.139,26.752 112.416,26.674 C112.692,26.596 112.949,26.491 113.190,26.359 C113.430,26.227 113.642,26.065 113.829,25.873 C114.015,25.681 114.155,25.465 114.252,25.225 L115.620,25.603 C115.464,25.951 115.251,26.269 114.981,26.557 C114.711,26.845 114.398,27.094 114.045,27.304 C113.691,27.514 113.298,27.679 112.866,27.799 C112.434,27.919 111.984,27.979 111.516,27.979 C110.807,27.979 110.159,27.850 109.572,27.592 C108.984,27.334 108.480,26.983 108.060,26.539 C107.639,26.095 107.313,25.576 107.079,24.982 C106.845,24.388 106.728,23.761 106.728,23.101 C106.728,22.441 106.845,21.817 107.079,21.229 C107.313,20.641 107.643,20.125 108.069,19.681 C108.494,19.237 109.002,18.886 109.590,18.628 C110.177,18.370 110.825,18.241 111.534,18.241 C112.242,18.241 112.886,18.373 113.469,18.637 C114.051,18.901 114.546,19.252 114.954,19.690 C115.361,20.128 115.676,20.638 115.899,21.220 C116.121,21.802 116.232,22.405 116.232,23.029 C116.232,23.161 116.229,23.281 116.223,23.389 C116.216,23.497 116.207,23.581 116.196,23.641 ZM114.405,21.238 C114.218,20.860 113.984,20.539 113.703,20.275 C113.421,20.011 113.093,19.804 112.722,19.654 C112.350,19.504 111.954,19.429 111.534,19.429 C111.113,19.429 110.717,19.504 110.346,19.654 C109.974,19.804 109.646,20.014 109.365,20.284 C109.083,20.554 108.854,20.875 108.681,21.247 C108.507,21.619 108.402,22.027 108.366,22.471 L114.738,22.471 C114.702,22.027 114.591,21.616 114.405,21.238 ZM104.226,27.925 C103.614,27.925 103.131,27.751 102.777,27.403 C102.423,27.055 102.246,26.569 102.246,25.945 L102.246,14.659 L103.830,14.659 L103.830,25.369 C103.830,25.717 103.923,25.990 104.109,26.188 C104.295,26.386 104.556,26.485 104.892,26.485 C105.024,26.485 105.180,26.464 105.360,26.422 C105.540,26.380 105.708,26.329 105.864,26.269 L106.116,27.547 C105.852,27.655 105.540,27.745 105.180,27.817 C104.820,27.889 104.502,27.925 104.226,27.925 ZM98.250,30.751 C97.818,31.099 97.311,31.363 96.729,31.543 C96.147,31.723 95.526,31.813 94.866,31.813 C93.798,31.813 92.931,31.630 92.265,31.264 C91.599,30.898 91.044,30.391 90.600,29.743 L91.518,28.933 C91.890,29.485 92.370,29.899 92.958,30.175 C93.546,30.451 94.182,30.589 94.866,30.589 C95.298,30.589 95.709,30.529 96.099,30.409 C96.489,30.289 96.828,30.109 97.116,29.869 C97.404,29.629 97.635,29.329 97.809,28.969 C97.983,28.609 98.070,28.183 98.070,27.691 L98.070,26.035 C97.890,26.323 97.677,26.584 97.431,26.818 C97.185,27.052 96.918,27.250 96.630,27.412 C96.342,27.574 96.036,27.697 95.712,27.781 C95.388,27.865 95.058,27.907 94.722,27.907 C94.086,27.907 93.501,27.775 92.967,27.511 C92.433,27.247 91.974,26.893 91.590,26.449 C91.206,26.005 90.909,25.495 90.699,24.919 C90.489,24.343 90.384,23.743 90.384,23.119 C90.384,22.459 90.489,21.832 90.699,21.238 C90.909,20.644 91.206,20.125 91.590,19.681 C91.974,19.237 92.433,18.886 92.967,18.628 C93.501,18.370 94.092,18.241 94.740,18.241 C95.532,18.241 96.216,18.433 96.792,18.817 C97.368,19.201 97.854,19.687 98.250,20.275 L98.250,18.403 L99.654,18.403 L99.654,27.691 C99.654,28.363 99.528,28.954 99.276,29.464 C99.024,29.974 98.682,30.403 98.250,30.751 ZM98.070,21.805 C97.938,21.481 97.767,21.187 97.557,20.923 C97.347,20.659 97.110,20.428 96.846,20.230 C96.582,20.032 96.297,19.879 95.991,19.771 C95.685,19.663 95.376,19.609 95.064,19.609 C94.584,19.609 94.155,19.711 93.777,19.915 C93.399,20.119 93.078,20.389 92.814,20.725 C92.550,21.061 92.346,21.442 92.202,21.868 C92.058,22.294 91.986,22.723 91.986,23.155 C91.986,23.623 92.070,24.067 92.238,24.487 C92.406,24.907 92.634,25.273 92.922,25.585 C93.210,25.897 93.549,26.146 93.939,26.332 C94.329,26.518 94.752,26.611 95.208,26.611 C95.544,26.611 95.868,26.551 96.180,26.431 C96.492,26.311 96.780,26.152 97.044,25.954 C97.308,25.756 97.530,25.531 97.710,25.279 C97.890,25.027 98.010,24.769 98.070,24.505 L98.070,21.805 ZM87.738,26.521 C87.318,26.965 86.817,27.319 86.235,27.583 C85.653,27.847 85.008,27.979 84.300,27.979 C83.592,27.979 82.947,27.847 82.365,27.583 C81.783,27.319 81.285,26.965 80.871,26.521 C80.457,26.077 80.136,25.561 79.908,24.973 C79.680,24.385 79.566,23.767 79.566,23.119 C79.566,22.459 79.683,21.835 79.917,21.247 C80.151,20.659 80.475,20.143 80.889,19.699 C81.303,19.255 81.801,18.901 82.383,18.637 C82.965,18.373 83.604,18.241 84.300,18.241 C84.996,18.241 85.638,18.373 86.226,18.637 C86.814,18.901 87.315,19.255 87.729,19.699 C88.143,20.143 88.467,20.659 88.701,21.247 C88.935,21.835 89.052,22.459 89.052,23.119 C89.052,23.767 88.938,24.385 88.710,24.973 C88.482,25.561 88.158,26.077 87.738,26.521 ZM87.189,21.742 C87.027,21.316 86.802,20.944 86.514,20.626 C86.226,20.308 85.893,20.059 85.515,19.879 C85.137,19.699 84.732,19.609 84.300,19.609 C83.868,19.609 83.463,19.702 83.085,19.888 C82.707,20.074 82.377,20.326 82.095,20.644 C81.813,20.962 81.591,21.334 81.429,21.760 C81.267,22.186 81.186,22.645 81.186,23.137 C81.186,23.629 81.267,24.085 81.429,24.505 C81.591,24.925 81.813,25.291 82.095,25.603 C82.377,25.915 82.707,26.161 83.085,26.341 C83.463,26.521 83.868,26.611 84.300,26.611 C84.732,26.611 85.137,26.521 85.515,26.341 C85.893,26.161 86.226,25.912 86.514,25.594 C86.802,25.276 87.027,24.904 87.189,24.478 C87.351,24.052 87.432,23.593 87.432,23.101 C87.432,22.621 87.351,22.168 87.189,21.742 ZM76.956,26.521 C76.536,26.965 76.035,27.319 75.453,27.583 C74.871,27.847 74.226,27.979 73.518,27.979 C72.810,27.979 72.165,27.847 71.583,27.583 C71.001,27.319 70.503,26.965 70.089,26.521 C69.675,26.077 69.354,25.561 69.126,24.973 C68.898,24.385 68.784,23.767 68.784,23.119 C68.784,22.459 68.901,21.835 69.135,21.247 C69.369,20.659 69.693,20.143 70.107,19.699 C70.521,19.255 71.019,18.901 71.601,18.637 C72.183,18.373 72.822,18.241 73.518,18.241 C74.214,18.241 74.856,18.373 75.444,18.637 C76.032,18.901 76.533,19.255 76.947,19.699 C77.361,20.143 77.685,20.659 77.919,21.247 C78.153,21.835 78.270,22.459 78.270,23.119 C78.270,23.767 78.156,24.385 77.928,24.973 C77.700,25.561 77.376,26.077 76.956,26.521 ZM76.407,21.742 C76.245,21.316 76.020,20.944 75.732,20.626 C75.444,20.308 75.111,20.059 74.733,19.879 C74.355,19.699 73.950,19.609 73.518,19.609 C73.086,19.609 72.681,19.702 72.303,19.888 C71.925,20.074 71.595,20.326 71.313,20.644 C71.031,20.962 70.809,21.334 70.647,21.760 C70.485,22.186 70.404,22.645 70.404,23.137 C70.404,23.629 70.485,24.085 70.647,24.505 C70.809,24.925 71.031,25.291 71.313,25.603 C71.595,25.915 71.925,26.161 72.303,26.341 C72.681,26.521 73.086,26.611 73.518,26.611 C73.950,26.611 74.355,26.521 74.733,26.341 C75.111,26.161 75.444,25.912 75.732,25.594 C76.020,25.276 76.245,24.904 76.407,24.478 C76.569,24.052 76.650,23.593 76.650,23.101 C76.650,22.621 76.569,22.168 76.407,21.742 ZM65.832,26.071 C64.704,27.283 63.408,27.889 61.944,27.889 C61.092,27.889 60.303,27.703 59.577,27.331 C58.851,26.959 58.224,26.470 57.696,25.864 C57.168,25.258 56.751,24.565 56.445,23.785 C56.139,23.005 55.986,22.201 55.986,21.373 C55.986,20.509 56.136,19.690 56.436,18.916 C56.736,18.142 57.150,17.458 57.678,16.864 C58.206,16.270 58.836,15.799 59.568,15.451 C60.300,15.103 61.092,14.929 61.944,14.929 C63.180,14.929 64.197,15.187 64.995,15.703 C65.793,16.219 66.402,16.891 66.822,17.719 L65.580,18.583 C65.196,17.839 64.686,17.287 64.050,16.927 C63.414,16.567 62.700,16.387 61.908,16.387 C61.260,16.387 60.672,16.528 60.144,16.810 C59.616,17.092 59.166,17.464 58.794,17.926 C58.422,18.388 58.134,18.922 57.930,19.528 C57.726,20.134 57.624,20.761 57.624,21.409 C57.624,22.093 57.738,22.738 57.966,23.344 C58.194,23.950 58.506,24.484 58.902,24.946 C59.298,25.408 59.766,25.771 60.306,26.035 C60.846,26.299 61.434,26.431 62.070,26.431 C63.462,26.431 64.716,25.759 65.832,24.415 L65.832,22.651 L63.078,22.651 L63.078,21.427 L67.200,21.427 L67.200,27.799 L65.832,27.799 L65.832,26.071 ZM43.462,23.943 L42.143,23.943 L42.143,22.416 L40.604,22.416 L40.604,21.107 L42.143,21.107 L42.143,19.580 L43.462,19.580 L43.462,21.107 L45.000,21.107 L45.000,22.416 L43.462,22.416 L43.462,23.943 ZM32.058,30.000 C27.608,30.000 24.000,26.418 24.000,22.000 C24.000,17.582 27.608,14.000 32.058,14.000 C34.254,14.000 36.244,14.872 37.697,16.286 L35.877,18.250 C34.903,17.272 33.552,16.667 32.058,16.667 C29.091,16.667 26.686,19.054 26.686,22.000 C26.686,24.945 29.091,27.333 32.058,27.333 C34.463,27.333 36.499,25.764 37.184,23.600 L32.595,23.600 L32.595,21.111 L40.116,21.111 L40.116,21.111 L40.116,23.600 C39.369,27.251 35.956,30.000 32.058,30.000 Z"/>
</svg>