<svg 
 xmlns="http://www.w3.org/2000/svg"
 xmlns:xlink="http://www.w3.org/1999/xlink"
 width="15px" height="15px">
<path fill-rule="evenodd"  fill="rgb(0, 0, 0)"
 d="M7.497,0.000 C9.567,0.000 11.442,0.841 12.803,2.196 C14.158,3.557 15.000,5.430 15.000,7.500 C15.000,9.569 14.158,11.443 12.803,12.803 C11.442,14.158 9.567,15.000 7.497,15.000 C5.427,15.000 3.553,14.158 2.198,12.803 C0.837,11.443 0.000,9.570 0.000,7.500 C0.000,5.430 0.836,3.557 2.197,2.196 C3.553,0.841 5.427,0.000 7.497,0.000 L7.497,0.000 ZM11.321,7.091 C11.546,7.091 11.725,7.275 11.725,7.500 C11.725,7.725 11.546,7.909 11.321,7.909 L7.509,7.909 L7.497,7.909 C7.347,7.909 7.215,7.823 7.145,7.702 L7.140,7.696 L7.140,7.696 L7.134,7.684 L7.134,7.684 L7.134,7.679 L7.134,7.679 L7.128,7.667 L7.128,7.667 L7.122,7.655 L7.122,7.655 L7.122,7.649 L7.122,7.649 L7.116,7.638 L7.116,7.638 L7.111,7.632 L7.111,7.632 L7.111,7.620 L7.111,7.620 L7.105,7.609 L7.105,7.609 L7.105,7.603 L7.105,7.603 L7.099,7.591 L7.099,7.591 L7.099,7.580 L7.099,7.580 L7.099,7.574 L7.099,7.568 L7.093,7.562 L7.093,7.562 L7.093,7.551 L7.093,7.551 L7.093,7.539 L7.093,7.539 L7.093,7.529 L7.093,7.529 L7.093,7.523 L7.093,7.523 L7.093,7.511 L7.093,7.511 L7.093,7.500 L7.093,7.500 L7.093,2.617 C7.093,2.392 7.272,2.214 7.497,2.214 C7.722,2.214 7.906,2.392 7.906,2.617 L7.906,7.091 L11.321,7.091 ZM12.226,2.773 C11.015,1.562 9.343,0.819 7.497,0.819 C5.652,0.819 3.979,1.562 2.768,2.773 C1.563,3.983 0.813,5.655 0.813,7.500 C0.813,9.344 1.563,11.016 2.768,12.227 C3.979,13.438 5.652,14.181 7.497,14.181 C9.343,14.181 11.015,13.438 12.226,12.227 C13.437,11.017 14.187,9.345 14.187,7.500 C14.187,5.655 13.437,3.983 12.226,2.773 L12.226,2.773 Z"/>
</svg>